<svg xmlns="http://www.w3.org/2000/svg" viewBox="0 0 512 512">
  <!-- Background -->
  <rect width="512" height="512" rx="100" fill="#13AA52" />
  
  <!-- Leaf shape (MongoDB logo style) -->
  <path d="M256 76c-48 56-80 126-80 174 0 80 50 134 80 166 30-32 80-86 80-166 0-48-32-118-80-174z" fill="#FFFFFF"/>
  
  <!-- Studio element (database grid/interface elements) -->
  <g fill="#FFFFFF" opacity="0.8">
    <!-- Interface elements suggesting Studio functionality -->
    <rect x="138" y="360" width="236" height="16" rx="4" />
    <rect x="138" y="390" width="180" height="16" rx="4" />
    <rect x="138" y="420" width="120" height="16" rx="4" />
    
    <!-- Grid pattern suggesting database view -->
    <path d="M360 300 H152 V250 H360 V300 Z" stroke="#FFFFFF" stroke-width="4" fill="none" />
    <path d="M256 250 V300" stroke="#FFFFFF" stroke-width="2" />
    <path d="M204 250 V300" stroke="#FFFFFF" stroke-width="2" />
    <path d="M308 250 V300" stroke="#FFFFFF" stroke-width="2" />
    <path d="M152 275 H360" stroke="#FFFFFF" stroke-width="2" />
  </g>
  
  <!-- Smaller leaf overlay for visual interest -->
  <path d="M256 134c-24 28-40 62-40 86 0 40 25 66 40 82 15-16 40-42 40-82 0-24-16-58-40-86z" fill="#13AA52" opacity="0.4"/>
</svg>